<?xml version="1.0" encoding="UTF-8"?>
<svg xmlns="http://www.w3.org/2000/svg" xmlns:xlink="http://www.w3.org/1999/xlink" width="612pt" height="792pt" viewBox="0 0 612 792" version="1.1">
<g id="surface1">
<path style=" stroke:none;fill-rule:nonzero;fill:rgb(93.299866%,23.899841%,58.799744%);fill-opacity:1;" d="M 532.132813 371.136719 L 532.132813 429.578125 C 512.3125 451.074219 481.378906 457.027344 453.308594 448.859375 C 446.648438 446.949219 440.171875 443.566406 434.136719 439.996094 L 434.136719 452.789063 L 299.546875 452.824219 L 271.378906 452.789063 L 271.390625 439.105469 C 253.941406 453.214844 225.316406 457.582031 204.773438 447.109375 C 195.730469 442.828125 186.535156 435.847656 180.433594 427.285156 C 159.648438 448.859375 130.703125 457.503906 101.046875 450.761719 C 87.640625 447.035156 75.519531 440.332031 65.292969 429.789063 L 65.285156 371.765625 C 58.703125 347.820313 66.554688 323.476563 85.027344 307.222656 C 101.4375 293.894531 125.3125 288.34375 146.167969 295.953125 C 154.574219 298.816406 162.265625 303.410156 169.164063 309.917969 C 190.894531 291.996094 224.757813 286.359375 251.402344 297.539063 C 261.558594 301.664063 271.070313 307.539063 279.558594 315.777344 C 295.023438 297.699219 317.625 289.453125 341.253906 295.003906 C 345.21875 296.121094 349.191406 297.222656 352.839844 299.210938 C 360.609375 296.359375 368.308594 293.179688 377.1875 293.105469 C 396.050781 292.550781 413.101563 299.601563 425.707031 314.277344 C 445.769531 297.144531 475.378906 287.539063 500.757813 299.824219 C 523.121094 310.613281 537.65625 334.25 534.988281 359.402344 C 534.5625 363.472656 533.089844 367.886719 532.132813 371.136719 "/>
<path style="fill:none;stroke-width:7.90494;stroke-linecap:butt;stroke-linejoin:miter;stroke:rgb(93.299866%,23.899841%,58.799744%);stroke-opacity:1;stroke-miterlimit:3.864;" d="M 5321.328125 4208.632813 L 5321.328125 3624.21875 C 5123.125 3409.257813 4813.789063 3349.726563 4533.085938 3431.40625 C 4466.484375 3450.507813 4401.71875 3484.335938 4341.367188 3520.039063 L 4341.367188 3392.109375 L 2995.46875 3391.757813 L 2713.789063 3392.109375 L 2713.90625 3528.945313 C 2539.414063 3387.851563 2253.164063 3344.179688 2047.734375 3448.90625 C 1957.304688 3491.71875 1865.351563 3561.523438 1804.335938 3647.148438 C 1596.484375 3431.40625 1307.03125 3344.960938 1010.46875 3412.382813 C 876.40625 3449.648438 755.195313 3516.679688 652.929688 3622.109375 L 652.851563 4202.34375 C 587.03125 4441.796875 665.546875 4685.234375 850.273438 4847.773438 C 1014.375 4981.054688 1253.125 5036.5625 1461.679688 4960.46875 C 1545.742188 4931.835938 1622.65625 4885.898438 1691.640625 4820.820313 C 1908.945313 5000.039063 2247.578125 5056.40625 2514.023438 4944.609375 C 2615.585938 4903.359375 2710.703125 4844.609375 2795.585938 4762.226563 C 2950.234375 4943.007813 3176.25 5025.46875 3412.539063 4969.960938 C 3452.1875 4958.789063 3491.914063 4947.773438 3528.398438 4927.890625 C 3606.09375 4956.40625 3683.085938 4988.203125 3771.875 4988.945313 C 3960.507813 4994.492188 4131.015625 4923.984375 4257.070313 4777.226563 C 4457.695313 4948.554688 4753.789063 5044.609375 5007.578125 4921.757813 C 5231.210938 4813.867188 5376.5625 4577.5 5349.882813 4325.976563 C 5345.625 4285.273438 5330.898438 4241.132813 5321.328125 4208.632813 Z M 5321.328125 4208.632813 " transform="matrix(0.1,0,0,-0.1,0,792)"/>
<path style=" stroke:none;fill-rule:nonzero;fill:rgb(100%,100%,100%);fill-opacity:1;" d="M 525.003906 373.515625 C 525.242188 392.476563 524.84375 408.253906 525.078125 427.125 C 506.363281 446.558594 475.914063 450.519531 451.007813 441.796875 C 442.527344 438.703125 434.667969 433.46875 427.453125 427.679688 L 427.496094 446.238281 L 277.324219 446.339844 C 277.324219 446.339844 277.234375 424.84375 277.324219 424.933594 C 261.9375 443.011719 239.828125 451.238281 216.355469 445.601563 C 201.523438 442.035156 187.171875 431.011719 179.792969 417.214844 C 161.316406 440.050781 134.035156 451 104.617188 445.210938 C 91.925781 442.113281 80.242188 436.851563 70.648438 427.410156 L 70.59375 368.917969 C 64.8125 346.234375 72.660156 323.792969 91.136719 309.523438 C 107.15625 297.539063 132.6875 294.765625 150.6875 304.519531 C 157.191406 307.691406 163.378906 312.613281 168.214844 318.480469 C 175.988281 312.136719 184.074219 306.5 193.117188 303.257813 C 221.429688 292.234375 254.34375 299.839844 275.199219 321.652344 L 279.003906 325.855469 C 290.425781 307.054688 310.886719 296.828125 332.855469 299.445313 C 339.914063 300.402344 346.410156 302.703125 352.601563 305.867188 C 368.699219 296.199219 393.277344 296.753906 408.582031 307.617188 C 414.210938 311.496094 420.003906 317.054688 423.960938 322.84375 C 442.445313 304.207031 469.40625 293.980469 495.023438 303.574219 C 513.738281 310.472656 527.222656 330.058594 528.644531 349.652344 C 529.285156 357.414063 526.582031 366.691406 525.003906 373.515625 "/>
<path style="fill:none;stroke-width:1.2;stroke-linecap:square;stroke-linejoin:miter;stroke:rgb(100%,100%,100%);stroke-opacity:1;stroke-miterlimit:2;" d="M 5250.039063 4184.84375 C 5252.421875 3995.234375 5248.4375 3837.460938 5250.78125 3648.75 C 5063.632813 3454.414063 4759.140625 3414.804688 4510.078125 3502.03125 C 4425.273438 3532.96875 4346.679688 3585.3125 4274.53125 3643.203125 L 4274.960938 3457.617188 L 2773.242188 3456.601563 C 2773.242188 3456.601563 2772.34375 3671.5625 2773.242188 3670.664063 C 2619.375 3489.882813 2398.28125 3407.617188 2163.554688 3463.984375 C 2015.234375 3499.648438 1871.71875 3609.882813 1797.929688 3747.851563 C 1613.164063 3519.492188 1340.351563 3410 1046.171875 3467.890625 C 919.257813 3498.867188 802.421875 3551.484375 706.484375 3645.898438 L 705.9375 4230.820313 C 648.125 4457.65625 726.601563 4682.070313 911.367188 4824.765625 C 1071.5625 4944.609375 1326.875 4972.34375 1506.875 4874.804688 C 1571.914063 4843.085938 1633.789063 4793.867188 1682.148438 4735.195313 C 1759.882813 4798.632813 1840.742188 4855 1931.171875 4887.421875 C 2214.296875 4997.65625 2543.4375 4921.601563 2751.992188 4703.476563 L 2790.039063 4661.445313 C 2904.257813 4849.453125 3108.867188 4951.71875 3328.554688 4925.546875 C 3399.140625 4915.976563 3464.101563 4892.96875 3526.015625 4861.328125 C 3686.992188 4958.007813 3932.773438 4952.460938 4085.820313 4843.828125 C 4142.109375 4805.039063 4200.039063 4749.453125 4239.609375 4691.5625 C 4424.453125 4877.929688 4694.0625 4980.195313 4950.234375 4884.257813 C 5137.382813 4815.273438 5272.226563 4619.414063 5286.445313 4423.476563 C 5292.851563 4345.859375 5265.820313 4253.085938 5250.039063 4184.84375 Z M 5250.039063 4184.84375 " transform="matrix(0.1,0,0,-0.1,0,792)"/>
<path style=" stroke:none;fill-rule:nonzero;fill:rgb(18.798828%,16.499329%,16.899109%);fill-opacity:1;" d="M 496.59375 397.074219 C 473.296875 409.664063 447.222656 394.792969 443.265625 390.53125 C 452.972656 400.941406 474.320313 408.015625 491.371094 403.496094 C 502.476563 400.007813 513.066406 392.871094 520.285156 382.398438 C 520.253906 382.40625 520.285156 423.46875 520.285156 423.546875 C 503.15625 440.589844 474.480469 444.96875 451.960938 436.480469 C 440.621094 432.199219 431.105469 424.667969 422.695313 414.597656 L 422.738281 440.894531 L 386.21875 440.921875 L 386.300781 341.324219 C 386.261719 341.363281 386.070313 335.019531 377.9375 335.019531 C 370.414063 335.019531 370.210938 341.757813 370.117188 341.792969 L 370.210938 440.492188 L 335.070313 440.527344 L 335.113281 341.757813 C 334.816406 338.984375 333.921875 335.414063 326.796875 335.414063 C 320.054688 335.414063 319.652344 338.390625 318.734375 341.640625 L 318.8125 440.921875 L 281.980469 440.894531 C 281.980469 440.894531 281.980469 409.761719 281.980469 403.417969 C 278.613281 419.082031 260.683594 436.324219 243.398438 439.894531 C 221.902344 444.808594 200.8125 437.277344 187.964844 419.125 C 185.109375 414.921875 183.050781 410.316406 181.144531 405.640625 C 167.1875 429.980469 141.648438 443.382813 113.578125 441.238281 C 99.140625 439.65625 86.976563 434.15625 76.195313 424.238281 L 76.195313 381.214844 C 80.867188 388.28125 87.957031 395.011719 95.496094 398.976563 C 109.769531 407.058594 131.421875 406.554688 145.378906 397.628906 C 147.167969 396.484375 152.015625 392.945313 151.632813 393.113281 C 152.214844 392.6875 144.789063 397.472656 137.652344 398.960938 C 120 402.632813 104.933594 400.714844 91.6875 389.613281 C 80.351563 379.941406 74.796875 366.777344 74.167969 352.109375 C 74.414063 335.019531 84.71875 318.15625 100.808594 309.917969 C 115.398438 301.902344 137.128906 301.664063 151.242188 310.867188 C 157.507813 314.59375 164.167969 320.222656 168.214844 326.410156 L 168.769531 326.410156 C 186.769531 307.222656 212.550781 299.210938 238.640625 305.867188 C 254.816406 309.996094 270.28125 320.78125 279.957031 335.765625 L 280.273438 335.765625 C 285.589844 320.628906 300.964844 308.246094 316.277344 305.3125 C 329.050781 302.859375 342.054688 305.554688 352.277344 311.980469 C 355.449219 310.703125 358.386719 308.878906 361.5625 307.617188 C 378.6875 300.878906 399.300781 304.835938 412.378906 317.523438 C 416.90625 321.652344 419.847656 326.726563 422.695313 331.808594 C 438.796875 311.980469 462.191406 300.640625 487.722656 306.660156 C 503.746094 310.472656 517.464844 324.738281 521.429688 340.523438 C 527.613281 363.136719 517.023438 386.035156 496.59375 397.074219 "/>
<path style="fill:none;stroke-width:2.01217;stroke-linecap:butt;stroke-linejoin:miter;stroke:rgb(100%,100%,100%);stroke-opacity:1;stroke-miterlimit:3.864;" d="M 4965.9375 3949.257813 C 4732.96875 3823.359375 4472.226563 3972.070313 4432.65625 4014.6875 C 4529.726563 3910.585938 4743.203125 3839.84375 4913.710938 3885.039063 C 5024.765625 3919.921875 5130.664063 3991.289063 5202.851563 4096.015625 C 5202.539063 4095.9375 5202.851563 3685.3125 5202.851563 3684.53125 C 5031.5625 3514.101563 4744.804688 3470.3125 4519.609375 3555.195313 C 4406.210938 3598.007813 4311.054688 3673.320313 4226.953125 3774.023438 L 4227.382813 3511.054688 L 3862.1875 3510.78125 L 3863.007813 4506.757813 C 3862.617188 4506.367188 3860.703125 4569.804688 3779.375 4569.804688 C 3704.140625 4569.804688 3702.109375 4502.421875 3701.171875 4502.070313 L 3702.109375 3515.078125 L 3350.703125 3514.726563 L 3351.132813 4502.421875 C 3348.164063 4530.15625 3339.21875 4565.859375 3267.96875 4565.859375 C 3200.546875 4565.859375 3196.523438 4536.09375 3187.34375 4503.59375 L 3188.125 3510.78125 L 2819.804688 3511.054688 C 2819.804688 3511.054688 2819.804688 3822.382813 2819.804688 3885.820313 C 2786.132813 3729.179688 2606.835938 3556.757813 2433.984375 3521.054688 C 2219.023438 3471.914063 2008.125 3547.226563 1879.648438 3728.75 C 1851.09375 3770.78125 1830.507813 3816.835938 1811.445313 3863.59375 C 1671.875 3620.195313 1416.484375 3486.171875 1135.78125 3507.617188 C 991.40625 3523.4375 869.765625 3578.4375 761.953125 3677.617188 L 761.953125 4107.851563 C 808.671875 4037.1875 879.570313 3969.882813 954.960938 3930.234375 C 1097.695313 3849.414063 1314.21875 3854.453125 1453.789063 3943.710938 C 1471.679688 3955.15625 1520.15625 3990.546875 1516.328125 3988.867188 C 1522.148438 3993.125 1447.890625 3945.273438 1376.523438 3930.390625 C 1200 3893.671875 1049.335938 3912.851563 916.875 4023.867188 C 803.515625 4120.585938 747.96875 4252.226563 741.679688 4398.90625 C 744.140625 4569.804688 847.1875 4738.4375 1008.085938 4820.820313 C 1153.984375 4900.976563 1371.289063 4903.359375 1512.421875 4811.328125 C 1575.078125 4774.0625 1641.679688 4717.773438 1682.148438 4655.898438 L 1687.695313 4655.898438 C 1867.695313 4847.773438 2125.507813 4927.890625 2386.40625 4861.328125 C 2548.164063 4820.039063 2702.8125 4712.1875 2799.570313 4562.34375 L 2802.734375 4562.34375 C 2855.898438 4713.710938 3009.648438 4837.539063 3162.773438 4866.875 C 3290.507813 4891.40625 3420.546875 4864.453125 3522.773438 4800.195313 C 3554.492188 4812.96875 3583.867188 4831.210938 3615.625 4843.828125 C 3786.875 4911.210938 3993.007813 4871.640625 4123.789063 4744.765625 C 4169.0625 4703.476563 4198.476563 4652.734375 4226.953125 4601.914063 C 4387.96875 4800.195313 4621.914063 4913.59375 4877.226563 4853.398438 C 5037.460938 4815.273438 5174.648438 4672.617188 5214.296875 4514.765625 C 5276.132813 4288.632813 5170.234375 4059.648438 4965.9375 3949.257813 Z M 4965.9375 3949.257813 " transform="matrix(0.1,0,0,-0.1,0,792)"/>
<path style=" stroke:none;fill-rule:nonzero;fill:rgb(100%,100%,100%);fill-opacity:1;" d="M 196.53125 347.183594 C 192.644531 350.199219 188.675781 353.527344 185.347656 357.5 L 184.953125 357.5 C 185.109375 355.195313 183.683594 353.371094 184.15625 351.15625 C 197.953125 336.71875 219.449219 331.007813 239.039063 337.667969 C 243.082031 339.097656 246.960938 340.847656 250.613281 343.386719 C 234.753906 334.972656 210.878906 336.488281 196.53125 347.183594 "/>
<path style="fill:none;stroke-width:1.2;stroke-linecap:square;stroke-linejoin:miter;stroke:rgb(100%,100%,100%);stroke-opacity:1;stroke-miterlimit:2;" d="M 1965.3125 4448.164063 C 1926.445313 4418.007813 1886.757813 4384.726563 1853.476563 4345 L 1849.53125 4345 C 1851.09375 4368.046875 1836.835938 4386.289063 1841.5625 4408.4375 C 1979.53125 4552.8125 2194.492188 4609.921875 2390.390625 4543.320313 C 2430.820313 4529.023438 2469.609375 4511.523438 2506.132813 4486.132813 C 2347.539063 4570.273438 2108.789063 4555.117188 1965.3125 4448.164063 Z M 1965.3125 4448.164063 " transform="matrix(0.1,0,0,-0.1,0,792)"/>
<path style=" stroke:none;fill-rule:nonzero;fill:rgb(100%,100%,100%);fill-opacity:1;" d="M 454.25 353.492188 C 454.25 342.117188 463.472656 332.902344 474.839844 332.902344 C 486.207031 332.902344 495.429688 342.117188 495.429688 353.492188 C 495.429688 364.859375 486.207031 374.082031 474.839844 374.082031 C 463.472656 374.082031 454.25 364.859375 454.25 353.492188 "/>
<path style="fill:none;stroke-width:10.7795;stroke-linecap:butt;stroke-linejoin:miter;stroke:rgb(100%,100%,100%);stroke-opacity:1;stroke-miterlimit:3.864;" d="M 4542.5 4385.078125 C 4542.5 4498.828125 4634.726563 4590.976563 4748.398438 4590.976563 C 4862.070313 4590.976563 4954.296875 4498.828125 4954.296875 4385.078125 C 4954.296875 4271.40625 4862.070313 4179.179688 4748.398438 4179.179688 C 4634.726563 4179.179688 4542.5 4271.40625 4542.5 4385.078125 Z M 4542.5 4385.078125 " transform="matrix(0.1,0,0,-0.1,0,792)"/>
<path style=" stroke:none;fill-rule:nonzero;fill:rgb(93.299866%,23.899841%,58.799744%);fill-opacity:1;" d="M 459.664063 353.492188 C 459.664063 345.113281 466.460938 338.328125 474.839844 338.328125 C 483.210938 338.328125 490.003906 345.113281 490.003906 353.492188 C 490.003906 361.863281 483.210938 368.65625 474.839844 368.65625 C 466.460938 368.65625 459.664063 361.863281 459.664063 353.492188 "/>
<path style="fill:none;stroke-width:7.90494;stroke-linecap:butt;stroke-linejoin:miter;stroke:rgb(93.299866%,23.899841%,58.799744%);stroke-opacity:1;stroke-miterlimit:3.864;" d="M 4596.640625 4385.078125 C 4596.640625 4468.867188 4664.609375 4536.71875 4748.398438 4536.71875 C 4832.109375 4536.71875 4900.039063 4468.867188 4900.039063 4385.078125 C 4900.039063 4301.367188 4832.109375 4233.4375 4748.398438 4233.4375 C 4664.609375 4233.4375 4596.640625 4301.367188 4596.640625 4385.078125 Z M 4596.640625 4385.078125 " transform="matrix(0.1,0,0,-0.1,0,792)"/>
<path style=" stroke:none;fill-rule:nonzero;fill:rgb(100%,100%,100%);fill-opacity:1;" d="M 209.996094 388.785156 C 209.996094 377.410156 219.214844 368.1875 230.585938 368.1875 C 241.960938 368.1875 251.183594 377.410156 251.183594 388.785156 C 251.183594 400.152344 241.960938 409.375 230.585938 409.375 C 219.214844 409.375 209.996094 400.152344 209.996094 388.785156 "/>
<path style="fill:none;stroke-width:10.7795;stroke-linecap:butt;stroke-linejoin:miter;stroke:rgb(100%,100%,100%);stroke-opacity:1;stroke-miterlimit:3.864;" d="M 2099.960938 4032.148438 C 2099.960938 4145.898438 2192.148438 4238.125 2305.859375 4238.125 C 2419.609375 4238.125 2511.835938 4145.898438 2511.835938 4032.148438 C 2511.835938 3918.476563 2419.609375 3826.25 2305.859375 3826.25 C 2192.148438 3826.25 2099.960938 3918.476563 2099.960938 4032.148438 Z M 2099.960938 4032.148438 " transform="matrix(0.1,0,0,-0.1,0,792)"/>
<path style=" stroke:none;fill-rule:nonzero;fill:rgb(93.299866%,23.899841%,58.799744%);fill-opacity:1;" d="M 215.421875 388.785156 C 215.421875 380.40625 222.214844 373.621094 230.585938 373.621094 C 238.964844 373.621094 245.753906 380.40625 245.753906 388.785156 C 245.753906 397.15625 238.964844 403.949219 230.585938 403.949219 C 222.214844 403.949219 215.421875 397.15625 215.421875 388.785156 "/>
<path style="fill:none;stroke-width:7.90494;stroke-linecap:butt;stroke-linejoin:miter;stroke:rgb(93.299866%,23.899841%,58.799744%);stroke-opacity:1;stroke-miterlimit:3.864;" d="M 2154.21875 4032.148438 C 2154.21875 4115.9375 2222.148438 4183.789063 2305.859375 4183.789063 C 2389.648438 4183.789063 2457.539063 4115.9375 2457.539063 4032.148438 C 2457.539063 3948.4375 2389.648438 3880.507813 2305.859375 3880.507813 C 2222.148438 3880.507813 2154.21875 3948.4375 2154.21875 4032.148438 Z M 2154.21875 4032.148438 " transform="matrix(0.1,0,0,-0.1,0,792)"/>
<path style=" stroke:none;fill-rule:nonzero;fill:rgb(100%,100%,100%);fill-opacity:1;" d="M 104.128906 351.90625 C 104.128906 340.53125 113.339844 331.308594 124.71875 331.308594 C 136.09375 331.308594 145.3125 340.53125 145.3125 351.90625 C 145.3125 363.28125 136.09375 372.503906 124.71875 372.503906 C 113.339844 372.503906 104.128906 363.28125 104.128906 351.90625 "/>
<path style="fill:none;stroke-width:10.7795;stroke-linecap:butt;stroke-linejoin:miter;stroke:rgb(100%,100%,100%);stroke-opacity:1;stroke-miterlimit:3.864;" d="M 1041.289063 4400.9375 C 1041.289063 4514.6875 1133.398438 4606.914063 1247.1875 4606.914063 C 1360.9375 4606.914063 1453.125 4514.6875 1453.125 4400.9375 C 1453.125 4287.1875 1360.9375 4194.960938 1247.1875 4194.960938 C 1133.398438 4194.960938 1041.289063 4287.1875 1041.289063 4400.9375 Z M 1041.289063 4400.9375 " transform="matrix(0.1,0,0,-0.1,0,792)"/>
<path style=" stroke:none;fill-rule:nonzero;fill:rgb(93.299866%,23.899841%,58.799744%);fill-opacity:1;" d="M 109.546875 351.90625 C 109.546875 343.527344 116.339844 336.734375 124.71875 336.734375 C 133.097656 336.734375 139.886719 343.527344 139.886719 351.90625 C 139.886719 360.285156 133.097656 367.078125 124.71875 367.078125 C 116.339844 367.078125 109.546875 360.285156 109.546875 351.90625 "/>
<path style="fill:none;stroke-width:7.90494;stroke-linecap:butt;stroke-linejoin:miter;stroke:rgb(93.299866%,23.899841%,58.799744%);stroke-opacity:1;stroke-miterlimit:3.864;" d="M 1095.46875 4400.9375 C 1095.46875 4484.726563 1163.398438 4552.65625 1247.1875 4552.65625 C 1330.976563 4552.65625 1398.867188 4484.726563 1398.867188 4400.9375 C 1398.867188 4317.148438 1330.976563 4249.21875 1247.1875 4249.21875 C 1163.398438 4249.21875 1095.46875 4317.148438 1095.46875 4400.9375 Z M 1095.46875 4400.9375 " transform="matrix(0.1,0,0,-0.1,0,792)"/>
<path style="fill:none;stroke-width:65.1798;stroke-linecap:round;stroke-linejoin:round;stroke:rgb(93.299866%,23.899841%,58.799744%);stroke-opacity:1;stroke-miterlimit:3.864;" d="M 3785.546875 4491.25 L 3785.546875 3431.757813 M 3270.15625 4491.25 L 3270.15625 3431.757813 " transform="matrix(0.1,0,0,-0.1,0,792)"/>
</g>
</svg>
